PathFileType	4	(X/Y/Z)	/Users/itak/Documents/Research/Walk-IL/dataset/trc/00228_00009.trc
DataRate	CameraRate	NumFrames	NumMarkers	Units	OrigDataRate	OrigDataStartFrame	OrigNumFrames
100.000000	100.000000	4	53	mm	100.000000	96	771
Frame#	Time	RPSI			LPSI			L3			STRN			T10			C7			CLAV			RBAK			LBAK			LSHO			LUPA			LAEL			LAOL			LWTS			LWPS			LFRA			LIFD			LHPS			LHTS			RSHO			RUPA			RAEL			RAOL			RWTS			RWPS			RFRA			RIFD			RHTS			RHPS			RBHD			LFHD			RFHD			LBHD			LHIP			RHIP			RASI			LASI			LKNE			LTHI			LANK			LTIP			LTOE			LMT1			LMT5			LHEE			RKNE			RTHI			RANK			RTIP			RTOE			RMT1			RMT5			RHEE			
		X1	Y1	Z1	X2	Y2	Z2	X3	Y3	Z3	X4	Y4	Z4	X5	Y5	Z5	X6	Y6	Z6	X7	Y7	Z7	X8	Y8	Z8	X9	Y9	Z9	X10	Y10	Z10	X11	Y11	Z11	X12	Y12	Z12	X13	Y13	Z13	X14	Y14	Z14	X15	Y15	Z15	X16	Y16	Z16	X17	Y17	Z17	X18	Y18	Z18	X19	Y19	Z19	X20	Y20	Z20	X21	Y21	Z21	X22	Y22	Z22	X23	Y23	Z23	X24	Y24	Z24	X25	Y25	Z25	X26	Y26	Z26	X27	Y27	Z27	X28	Y28	Z28	X29	Y29	Z29	X30	Y30	Z30	X31	Y31	Z31	X32	Y32	Z32	X33	Y33	Z33	X34	Y34	Z34	X35	Y35	Z35	X36	Y36	Z36	X37	Y37	Z37	X38	Y38	Z38	X39	Y39	Z39	X40	Y40	Z40	X41	Y41	Z41	X42	Y42	Z42	X43	Y43	Z43	X44	Y44	Z44	X45	Y45	Z45	X46	Y46	Z46	X47	Y47	Z47	X48	Y48	Z48	X49	Y49	Z49	X50	Y50	Z50	X51	Y51	Z51	X52	Y52	Z52	X53	Y53	Z53	

97	0.96	-12.12175846099854	1050.48046875	967.0359497070312	-16.03007316589355	1055.911376953125	845.6903686523438	-17.42086029052734	1133.180419921875	887.0872192382812	237.9510650634766	1301.145385742188	868.2973022460938	-16.40748023986816	1259.972290039062	890.7716064453125	62.02846145629883	1516.77978515625	877.7881469726562	220.3888549804688	1420.25048828125	869.5347900390625	-18.72624588012695	1384.511108398438	958.5614624023438	32.4447135925293	1478.642822265625	768.7098999023438	118.3734588623047	1473.098266601562	707.1516723632812	77.44096374511719	1354.97998046875	632.597412109375	80.37986755371094	1142.096435546875	610.3810424804688	10.22186946868896	1130.49267578125	661.642822265625	166.8490753173828	907.1343383789062	669.6155395507812	135.4518127441406	888.8539428710938	593.455078125	97.94464111328125	1033.77099609375	599.2500610351562	162.4430084228516	714.25537109375	668.9481811523438	150.1895751953125	800.408935546875	598.8690185546875	196.6172180175781	804.5234985351562	649.0707397460938	129.6964721679688	1471.90966796875	1044.137573242188	110.4921875	1408.376342773438	1112.877563476562	72.57406616210938	1129.852661132812	1157.471313476562	39.22530746459961	1122.111450195312	1067.868774414062	204.8381958007812	912.3135375976562	1123.19384765625	150.2157745361328	900.0034790039062	1186.206909179688	96.57240295410156	1061.351928710938	1172.006591796875	222.5060119628906	718.8886108398438	1125.412963867188	244.0959014892578	792.8497924804688	1144.08251953125	190.0619964599609	793.939208984375	1191.99658203125	129.8603973388672	1672.927856445312	932.3048706054688	314.8134155273438	1695.431518554688	801.9107666015625	332.1719055175781	1694.346923828125	900.34326171875	151.0666809082031	1675.631591796875	793.3419799804688	72.60252380371094	984.9349975585938	699.3309326171875	89.21331024169922	1008.145202636719	1068.723876953125	185.1846923828125	1045.262817382812	1024.68310546875	178.4979553222656	1020.955688476562	743.0050048828125	96.93410491943359	498.3277893066406	771.8004760742188	95.49787902832031	640.1911010742188	730.6930541992188	-3.380554676055908	34.99801635742188	819.4075317382812	42.73583602905273	276.3229675292969	785.0032348632812	212.1684417724609	43.09616088867188	874.9239501953125	135.9974212646484	23.92907905578613	930.127197265625	125.5478820800781	38.08057403564453	802.880859375	-64.81376647949219	43.51240921020508	872.1512451171875	228.5641326904297	526.0452880859375	1033.39208984375	182.8030853271484	791.19970703125	1069.805786132812	4.610086917877197	47.32593536376953	1051.772216796875	211.6216888427734	405.1632080078125	1024.916870117188	219.5327301025391	50.27653884887695	997.0808715820312	171.6515350341797	66.48092651367188	943.165771484375	124.8126525878906	51.9592170715332	1069.393188476562	-47.00420761108398	90.36726379394531	998.4027099609375	
98	0.97	-10.26383209228516	1050.491455078125	966.7267456054688	-14.63727951049805	1055.97509765625	845.379638671875	-15.81027793884277	1133.037475585938	886.6702270507812	239.58935546875	1301.023193359375	867.3756103515625	-14.77572536468506	1259.877075195312	890.302734375	63.68951797485352	1516.658569335938	877.0846557617188	222.0404968261719	1420.126098632812	868.6163330078125	-16.95538711547852	1384.421142578125	957.99755859375	33.92145156860352	1478.473876953125	768.0704345703125	119.7670745849609	1472.884033203125	706.396728515625	78.74846649169922	1354.749145507812	631.92529296875	81.77236938476562	1141.869873046875	609.6887817382812	11.67892551422119	1130.209838867188	661.0380249023438	168.4380035400391	906.937255859375	668.807373046875	136.9493713378906	888.6634521484375	592.6732177734375	99.36582946777344	1033.563232421875	598.5244140625	164.2165069580078	713.9312744140625	667.9852294921875	151.7320404052734	800.2178955078125	598.0446166992188	198.220947265625	804.343994140625	648.1943969726562	131.6172943115234	1471.852294921875	1043.370239257812	112.3902893066406	1408.36181640625	1112.142578125	74.14274597167969	1129.927612304688	1156.962158203125	40.75118637084961	1122.198486328125	1067.3837890625	206.3139953613281	912.3006591796875	1122.733764648438	151.7092742919922	900.0195922851562	1185.7529296875	98.11372375488281	1061.39208984375	1171.525756835938	223.9427337646484	718.868408203125	1124.937744140625	245.5472717285156	792.814697265625	1143.601440429688	191.5211181640625	793.9130249023438	1191.524169921875	131.8996734619141	1672.852294921875	931.6505126953125	316.0894775390625	1695.328247070312	800.158447265625	334.01123046875	1694.26123046875	898.4737548828125	152.2765197753906	1675.516235351562	792.5916748046875	73.10691070556641	984.8541259765625	698.556640625	91.76493835449219	1008.291625976562	1067.86962890625	187.2448272705078	1045.12841796875	1023.401306152344	179.2869415283203	1020.789733886719	741.7308959960938	96.47037506103516	498.2150573730469	771.1235961914062	95.11717987060547	640.0437622070312	729.8307495117188	-3.408875942230225	34.95709991455078	819.4080810546875	42.31731033325195	276.2799682617188	784.6978149414062	212.1165313720703	43.14175796508789	874.9220581054688	137.4933776855469	25.95267868041992	928.0078125	125.5022811889648	38.0750846862793	802.8363037109375	-64.87018585205078	43.46786499023438	872.137939453125	235.4990692138672	527.3443603515625	1031.614501953125	186.9487762451172	792.1022338867188	1068.218872070312	10.38453769683838	50.23902893066406	1051.961669921875	218.5184783935547	406.4289245605469	1023.099792480469	223.7510833740234	51.75744247436523	995.0435180664062	174.0729522705078	66.21221160888672	943.6468505859375	129.9451599121094	53.82693862915039	1068.419555664062	-42.48845672607422	92.84638977050781	999.1682739257812	
99	0.98	-8.29090404510498	1050.54052734375	966.5037231445312	-13.18464946746826	1056.032592773438	845.152099609375	-14.1173152923584	1132.905883789062	886.3272705078125	241.3086547851562	1300.903442382812	866.4328002929688	-13.0228385925293	1259.788208007812	889.8909912109375	65.44090270996094	1516.55517578125	876.409912109375	223.7733612060547	1420.004516601562	867.6903686523438	-15.09976768493652	1384.35205078125	957.4813232421875	35.45821762084961	1478.322387695312	767.4690551757812	121.2128143310547	1472.686157226562	705.6605224609375	80.10677337646484	1354.534545898438	631.2811889648438	83.22044372558594	1141.65185546875	609.0357055664062	13.20319080352783	1129.93603515625	660.4813232421875	170.0851745605469	906.7532958984375	668.0501098632812	138.5050354003906	888.4827880859375	591.9434204101562	100.8483657836914	1033.362548828125	597.844970703125	166.0261840820312	713.6237182617188	667.0877075195312	153.3331298828125	800.0379028320312	597.2785034179688	199.8894653320312	804.1756591796875	647.3757934570312	133.6659698486328	1471.775146484375	1042.622924804688	114.4110336303711	1408.3203125	1111.423950195312	75.76319122314453	1129.974487304688	1156.40087890625	42.40110397338867	1122.272216796875	1066.831298828125	207.83154296875	912.2393188476562	1122.34033203125	153.1946563720703	900.001708984375	1185.318725585938	99.68170928955078	1061.401611328125	1171.010131835938	225.3854064941406	718.8016967773438	1124.55908203125	247.0011291503906	792.7313232421875	1143.227294921875	192.9463958740234	793.848876953125	1191.112060546875	134.0125274658203	1672.763305664062	930.9962768554688	317.4383544921875	1695.247924804688	798.423828125	335.9078369140625	1694.209228515625	896.6188354492188	153.5614929199219	1675.397338867188	791.840576171875	73.58567810058594	984.7505493164062	697.8251342773438	94.54950714111328	1008.474914550781	1067.026123046875	189.4585723876953	1045.022216796875	1022.080200195312	180.0696716308594	1020.628662109375	740.4304809570312	96.13319396972656	498.096923828125	770.4961547851562	94.82985687255859	639.8895874023438	729.0261840820312	-3.436202049255371	34.93159484863281	819.4168090820312	41.9858512878418	276.2314758300781	784.4441528320312	212.0695648193359	43.18352127075195	874.9120483398438	139.0441741943359	28.08409118652344	925.8185424804688	125.4581832885742	38.07051849365234	802.7943725585938	-64.92076873779297	43.42586898803711	872.1392211914062	242.2463226318359	528.657958984375	1029.782348632812	191.1347045898438	793.0128173828125	1066.66748046875	17.04262924194336	52.97831344604492	1052.00146484375	225.3946990966797	407.6751708984375	1021.221801757812	228.8079071044922	53.29206466674805	992.7782592773438	177.2212371826172	65.73094940185547	944.091796875	135.9598693847656	55.51628112792969	1067.296264648438	-37.20290374755859	94.77916717529297	999.9563598632812	
100	0.99	-6.208468437194824	1050.624145507812	966.35888671875	-11.67497730255127	1056.08349609375	845.0004272460938	-12.3484058380127	1132.790893554688	886.0556640625	243.1088562011719	1300.787353515625	865.4622802734375	-11.15069961547852	1259.70947265625	889.5331420898438	67.28485107421875	1516.468872070312	875.7679443359375	225.5880737304688	1419.886596679688	866.752197265625	-13.16015529632568	1384.309448242188	957.015869140625	37.05172348022461	1478.192138671875	766.9078369140625	122.7033538818359	1472.510864257812	704.9412231445312	81.50676727294922	1354.342529296875	630.6647338867188	84.72230529785156	1141.44873046875	608.4241333007812	14.79264450073242	1129.678955078125	659.9747924804688	171.7901153564453	906.5899658203125	667.3428344726562	140.11767578125	888.3179321289062	591.265380859375	102.3910293579102	1033.17529296875	597.21337890625	167.8663787841797	713.3449096679688	666.2617797851562	154.9940032958984	799.8755493164062	596.5717163085938	201.6205139160156	804.0253295898438	646.6153564453125	135.8453369140625	1471.678344726562	1041.892456054688	116.5676498413086	1408.250366210938	1110.719970703125	77.45359802246094	1129.990966796875	1155.784545898438	44.18898773193359	1122.3251953125	1066.204711914062	209.3982849121094	912.1229858398438	1122.01318359375	154.67822265625	899.9478759765625	1184.90576171875	101.2910461425781	1061.381469726562	1170.45703125	226.8285217285156	718.6802368164062	1124.284057617188	248.4589385986328	792.592041015625	1142.964111328125	194.3379821777344	793.7462158203125	1190.76611328125	136.2056427001953	1672.663330078125	930.3416748046875	318.8646545410156	1695.183959960938	796.7041015625	337.8705139160156	1694.181030273438	894.776123046875	154.9283599853516	1675.277099609375	791.0857543945312	74.05332946777344	984.6222534179688	697.1376342773438	97.53523254394531	1008.693054199219	1066.19482421875	191.8171081542969	1044.95068359375	1020.723266601562	180.8530731201172	1020.474609375	739.1090698242188	95.95542144775391	497.9701538085938	769.922119140625	94.67015075683594	639.7259521484375	728.2860107421875	-3.461597442626953	34.92180633544922	819.4324340820312	41.76717758178711	276.17529296875	784.2434692382812	212.0294036865234	43.21929931640625	874.8960571289062	140.5558471679688	30.20178031921387	923.683837890625	125.4173431396484	38.06742095947266	802.756103515625	-64.96334075927734	43.38885116577148	872.1519775390625	248.7926483154297	529.976806640625	1027.895141601562	195.3402099609375	793.92333984375	1065.148803710938	24.59676933288574	55.48655700683594	1051.908203125	232.2436218261719	408.894775390625	1019.294494628906	234.7376251220703	54.82653427124023	990.3508911132812	181.2225646972656	65.07975006103516	944.4317626953125	142.8681793212891	56.96624755859375	1066.040405273438	-31.11354637145996	96.11272430419922	1000.724243164062	
